<svg width="315" height="323" viewBox="0 0 315 323" fill="none" xmlns="http://www.w3.org/2000/svg">
<g filter="url(#filter0_dd_239_2975)">
<rect x="8" width="299" height="299" rx="64" fill="white"/>
</g>
<g clip-path="url(#clip0_239_2975)">
<path d="M82.5622 137.076C83.4223 134.186 86.7591 132.521 90.0067 133.367C93.259 134.207 95.1906 137.234 94.3305 140.124C93.4704 143.015 90.1336 144.679 86.886 143.834C83.6338 142.993 81.7021 139.967 82.5622 137.076ZM62.5505 133.8C65.8027 132.959 69.1349 134.619 69.9949 137.51C70.855 140.4 68.9234 143.426 65.6711 144.267C62.4189 145.108 59.0867 143.448 58.2266 140.558C57.3666 137.672 59.3029 134.645 62.5505 133.8ZM71.2733 140.948C71.9689 139.853 73.7313 140.072 74.0979 141.294C75.1647 144.876 73.1908 148.577 69.619 150.005C73.1767 151.437 75.1412 155.129 74.0744 158.707C73.7078 159.933 71.9454 160.148 71.2498 159.053L70.6999 158.186C68.5051 154.721 63.763 153.495 59.9656 155.405C58.4052 156.188 56.6005 154.848 57.0752 153.259L58.0574 149.965L57.0987 146.742C56.624 145.152 58.4287 143.812 59.9891 144.596C63.7865 146.51 68.5286 145.279 70.7234 141.815L71.2733 140.948ZM78.4593 140.856C78.8259 139.629 80.5883 139.415 81.2839 140.51L81.8337 141.377C84.0285 144.841 88.7706 146.072 92.5728 144.158C94.1331 143.374 95.9378 144.714 95.4632 146.304L94.3493 150.035L95.4397 153.697C95.9143 155.286 94.1096 156.626 92.5493 155.842C88.7518 153.929 84.0097 155.159 81.8149 158.624L81.2651 159.491C80.5695 160.586 78.8071 160.371 78.4405 159.145C77.2749 155.238 79.7282 151.191 83.9205 150.105L84.334 149.996L83.9392 149.895C79.747 148.809 77.2937 144.762 78.4593 140.856ZM58.2078 159.438C59.0679 156.548 62.4048 154.883 65.6523 155.729C68.9046 156.569 70.8409 159.596 69.9761 162.486C69.1161 165.377 65.7792 167.041 62.5317 166.196C59.2841 165.355 57.3478 162.329 58.2078 159.438ZM86.8625 156.167C90.1148 155.326 93.4469 156.986 94.307 159.876C95.1671 162.767 93.2355 165.793 89.9832 166.634C86.7309 167.475 83.3988 165.815 82.5387 162.924C81.6786 160.034 83.6103 157.007 86.8625 156.167Z" fill="url(#paint0_linear_239_2975)"/>
<path d="M106.517 148.677C106.517 149.838 105.507 150.78 104.261 150.78C103.016 150.78 102.005 149.838 102.005 148.677V132H108.11L112.834 141.25L114.728 145.651H115.057L116.889 141.25L121.467 132H127.605V148.677C127.605 149.838 126.595 150.78 125.349 150.78C124.104 150.78 123.093 149.838 123.093 148.677V141.25L123.244 138.307H122.915L121.74 141.25L118.539 147.635C117.923 148.87 116.593 149.658 115.132 149.658H114.446C112.984 149.658 111.654 148.87 111.038 147.635L107.838 141.25L106.663 138.307H106.334L106.512 141.25V148.677H106.517Z" fill="url(#paint1_linear_239_2975)"/>
<path d="M132.855 155.544H132.432C131.304 155.544 130.387 154.69 130.387 153.639C130.387 152.588 131.304 151.734 132.432 151.734H134.086C135.2 151.734 135.679 151.454 135.98 150.836L128.611 136.739H133.724L136.911 143.159L138.175 146.466H138.476L139.679 143.128L142.536 136.739H147.56L140.102 151.791C138.659 154.734 136.643 155.549 132.855 155.549V155.544Z" fill="url(#paint2_linear_239_2975)"/>
<path d="M163.338 135.784H157.801V141.81H163.338C165.833 141.81 167.008 141.136 167.008 138.784C167.008 136.432 165.833 135.784 163.338 135.784ZM157.801 148.677C157.801 149.838 156.791 150.78 155.545 150.78C154.3 150.78 153.289 149.838 153.289 148.677V132H163.817C168.479 132 171.487 134.466 171.487 138.784C171.487 143.102 168.479 145.594 163.817 145.594H157.801V148.677Z" fill="url(#paint3_linear_239_2975)"/>
<path d="M181.122 147.333C184.158 147.333 185.243 146.238 185.243 143.772C185.243 141.307 184.162 140.155 181.122 140.155C178.081 140.155 177 141.302 177 143.772C177 146.242 178.053 147.333 181.122 147.333ZM181.122 151.06C175.98 151.06 172.521 148.2 172.521 143.772C172.521 139.345 175.98 136.458 181.122 136.458C186.263 136.458 189.722 139.288 189.722 143.772C189.722 148.257 186.263 151.06 181.122 151.06Z" fill="url(#paint4_linear_239_2975)"/>
<path d="M199.597 151.06C194.422 151.06 191.113 148.2 191.113 143.772C191.113 139.345 194.422 136.458 199.597 136.458C204.437 136.458 207.746 138.867 207.746 142.511V142.905H203.262V142.682C203.262 140.886 201.848 140.242 199.503 140.242C196.824 140.242 195.592 141.167 195.592 143.772C195.592 146.378 196.824 147.276 199.503 147.276C201.848 147.276 203.262 146.632 203.262 144.837V144.613H207.746V145.007C207.746 148.625 204.437 151.06 199.597 151.06Z" fill="url(#paint5_linear_239_2975)"/>
<path d="M235.752 139.734C233.073 139.734 231.931 140.575 231.72 142.397H239.719C239.597 140.549 238.393 139.734 235.747 139.734H235.752ZM235.931 151.06C230.907 151.06 227.48 148.761 227.48 143.772C227.48 139.288 230.878 136.458 235.841 136.458C240.804 136.458 244.052 138.867 244.052 143.269C244.052 143.772 243.991 144.136 243.93 144.613H231.659C231.781 146.772 232.862 147.696 235.78 147.696C238.459 147.696 239.39 147.053 239.39 145.848V145.568H243.902V145.875C243.902 148.931 240.715 151.06 235.931 151.06Z" fill="url(#paint6_linear_239_2975)"/>
<path d="M256.582 150.78H252.85C249.33 150.78 247.196 149.238 247.196 145.708V140.216H244.818V136.739H247.196V134.019H251.708V136.739H254.716C255.745 136.739 256.582 137.518 256.582 138.477C256.582 139.436 255.745 140.216 254.716 140.216H251.708V145.235C251.708 146.636 252.281 147 253.875 147H256.582V150.784V150.78Z" fill="url(#paint7_linear_239_2975)"/>
<path d="M106.559 168C103.237 168 101.173 166.095 101.173 163.165C101.173 160.235 103.232 158.33 106.559 158.33C109.689 158.33 111.701 159.788 111.701 162.171V162.381H109.191V162.171C109.191 160.936 108.439 160.349 106.606 160.349C104.397 160.349 103.57 161.076 103.57 163.165C103.57 165.254 104.397 165.981 106.606 165.981C108.439 165.981 109.191 165.394 109.191 164.159V163.949H111.701V164.159C111.701 166.542 109.699 168 106.559 168Z" fill="url(#paint8_linear_239_2975)"/>
<path d="M124.968 166.134C126.486 166.134 127.027 165.587 127.027 164.356C127.027 163.125 126.486 162.547 124.968 162.547C123.45 162.547 122.91 163.121 122.91 164.356C122.91 165.591 123.436 166.134 124.968 166.134ZM124.968 168C122.398 168 120.668 166.572 120.668 164.356C120.668 162.14 122.398 160.699 124.968 160.699C127.539 160.699 129.269 162.114 129.269 164.356C129.269 166.598 127.539 168 124.968 168Z" fill="url(#paint9_linear_239_2975)"/>
<path d="M140.722 167.86H138.466V160.839H140.558V162.998H140.694C140.891 161.82 141.794 160.699 143.763 160.699C145.732 160.699 146.799 161.934 146.799 163.489V167.86H144.543V164.19C144.543 163.069 144.045 162.591 142.663 162.591C141.281 162.591 140.722 163.125 140.722 164.317V167.864V167.86Z" fill="url(#paint10_linear_239_2975)"/>
<path d="M160.015 168C157.472 168 156.076 167.076 156.076 165.451V165.407H158.332V165.534C158.332 166.165 158.755 166.331 160.034 166.331C161.237 166.331 161.523 166.147 161.523 165.727C161.523 165.333 161.298 165.223 160.41 165.11L158.29 164.873C156.786 164.72 155.945 164.089 155.945 162.911C155.945 161.733 157.073 160.695 159.658 160.695C162.243 160.695 163.521 161.562 163.521 163.274V163.318H161.265V163.235C161.265 162.661 160.964 162.368 159.582 162.368C158.455 162.368 158.168 162.552 158.168 162.999C158.168 163.362 158.379 163.515 159.371 163.629L160.978 163.813C162.995 164.023 163.746 164.654 163.746 165.819C163.746 167.137 162.346 168.004 160.015 168.004V168Z" fill="url(#paint11_linear_239_2975)"/>
<path d="M176.036 168C173.917 168 172.906 166.782 172.906 165.21V160.839H175.162V164.509C175.162 165.644 175.675 166.121 177.103 166.121C178.532 166.121 179.105 165.587 179.105 164.396V160.835H181.361V167.855H179.256V165.709H179.134C178.936 166.888 178.02 167.996 176.036 167.996V168Z" fill="url(#paint12_linear_239_2975)"/>
<path d="M192.575 158.47H191.259C191 158.47 190.789 158.666 190.789 158.908V167.422C190.789 167.664 191 167.86 191.259 167.86H192.575C192.835 167.86 193.045 167.664 193.045 167.422V158.908C193.045 158.666 192.835 158.47 192.575 158.47Z" fill="url(#paint13_linear_239_2975)"/>
<path d="M207.802 167.86H205.937C204.179 167.86 203.107 167.089 203.107 165.324V162.578H201.918V160.839H203.107V159.482H205.363V160.839H207.798V162.578H205.363V165.088C205.363 165.788 205.65 165.972 206.444 165.972H207.798V167.864L207.802 167.86Z" fill="url(#paint14_linear_239_2975)"/>
<path d="M218.908 165.981C218.908 166.358 219.223 166.515 219.886 166.515C221.418 166.515 222.245 166.178 222.306 165.184L219.688 165.464C219.148 165.508 218.908 165.648 218.908 165.981ZM219.237 168C217.611 168 216.633 167.299 216.633 166.121C216.633 165.083 217.461 164.439 219.068 164.286L222.301 163.98V163.712C222.301 162.801 221.864 162.547 220.661 162.547C219.458 162.547 219.054 162.828 219.054 163.625V163.682H216.784V163.638C216.784 161.899 218.349 160.695 220.83 160.695C223.312 160.695 224.529 161.899 224.529 163.734V167.855H222.424V166.244H222.301C221.954 167.339 220.901 167.996 219.232 167.996L219.237 168Z" fill="url(#paint15_linear_239_2975)"/>
<path d="M236.203 167.86H233.947V160.839H236.039V162.998H236.175C236.372 161.82 237.275 160.699 239.244 160.699C241.213 160.699 242.28 161.934 242.28 163.489V167.86H240.024V164.19C240.024 163.069 239.526 162.591 238.144 162.591C236.763 162.591 236.203 163.125 236.203 164.317V167.864V167.86Z" fill="url(#paint16_linear_239_2975)"/>
<path d="M257 167.86H255.134C253.376 167.86 252.305 167.089 252.305 165.324V162.578H251.116V160.839H252.305V159.482H254.561V160.839H256.995V162.578H254.561V165.088C254.561 165.788 254.847 165.972 255.642 165.972H256.995V167.864L257 167.86Z" fill="url(#paint17_linear_239_2975)"/>
<path d="M214.406 138.666C216.441 141.315 220.628 141.175 221.686 138.425L221.808 138.101C222.123 137.282 223.495 137.549 223.645 138.46C224.05 140.891 222.231 142.905 219.594 142.949L212.314 143.076V135.942L214.406 138.666ZM219.594 143.404C222.236 143.448 224.05 145.463 223.645 147.893C223.495 148.8 222.123 149.067 221.808 148.253L221.681 147.928C220.628 145.178 216.436 145.038 214.401 147.688L212.31 150.412V143.282L219.59 143.409L219.594 143.404Z" fill="url(#paint18_linear_239_2975)"/>
</g>
<defs>
<filter id="filter0_dd_239_2975" x="0" y="0" width="315" height="323" filterUnits="userSpaceOnUse" color-interpolation-filters="sRGB">
<feFlood flood-opacity="0" result="BackgroundImageFix"/>
<feColorMatrix in="SourceAlpha" type="matrix" values="0 0 0 0 0 0 0 0 0 0 0 0 0 0 0 0 0 0 127 0" result="hardAlpha"/>
<feMorphology radius="4" operator="erode" in="SourceAlpha" result="effect1_dropShadow_239_2975"/>
<feOffset dy="4"/>
<feGaussianBlur stdDeviation="2"/>
<feComposite in2="hardAlpha" operator="out"/>
<feColorMatrix type="matrix" values="0 0 0 0 0.0470588 0 0 0 0 0.0470588 0 0 0 0 0.0509804 0 0 0 0.05 0"/>
<feBlend mode="normal" in2="BackgroundImageFix" result="effect1_dropShadow_239_2975"/>
<feColorMatrix in="SourceAlpha" type="matrix" values="0 0 0 0 0 0 0 0 0 0 0 0 0 0 0 0 0 0 127 0" result="hardAlpha"/>
<feMorphology radius="8" operator="erode" in="SourceAlpha" result="effect2_dropShadow_239_2975"/>
<feOffset dy="16"/>
<feGaussianBlur stdDeviation="8"/>
<feComposite in2="hardAlpha" operator="out"/>
<feColorMatrix type="matrix" values="0 0 0 0 0.0470588 0 0 0 0 0.0470588 0 0 0 0 0.0509804 0 0 0 0.1 0"/>
<feBlend mode="normal" in2="effect1_dropShadow_239_2975" result="effect2_dropShadow_239_2975"/>
<feBlend mode="normal" in="SourceGraphic" in2="effect2_dropShadow_239_2975" result="shape"/>
</filter>
<linearGradient id="paint0_linear_239_2975" x1="56.9979" y1="149.999" x2="95.5404" y2="149.999" gradientUnits="userSpaceOnUse">
<stop offset="0.370192" stop-color="#5A3FFF"/>
<stop offset="0.706731" stop-color="#D4AF37"/>
<stop offset="0.985577" stop-color="#300878"/>
</linearGradient>
<linearGradient id="paint1_linear_239_2975" x1="101.173" y1="150.002" x2="257" y2="150.002" gradientUnits="userSpaceOnUse">
<stop offset="0.370192" stop-color="#5A3FFF"/>
<stop offset="0.706731" stop-color="#D4AF37"/>
<stop offset="0.985577" stop-color="#300878"/>
</linearGradient>
<linearGradient id="paint2_linear_239_2975" x1="101.173" y1="150.002" x2="257" y2="150.002" gradientUnits="userSpaceOnUse">
<stop offset="0.370192" stop-color="#5A3FFF"/>
<stop offset="0.706731" stop-color="#D4AF37"/>
<stop offset="0.985577" stop-color="#300878"/>
</linearGradient>
<linearGradient id="paint3_linear_239_2975" x1="101.173" y1="150.002" x2="257" y2="150.002" gradientUnits="userSpaceOnUse">
<stop offset="0.370192" stop-color="#5A3FFF"/>
<stop offset="0.706731" stop-color="#D4AF37"/>
<stop offset="0.985577" stop-color="#300878"/>
</linearGradient>
<linearGradient id="paint4_linear_239_2975" x1="101.173" y1="150.002" x2="257" y2="150.002" gradientUnits="userSpaceOnUse">
<stop offset="0.370192" stop-color="#5A3FFF"/>
<stop offset="0.706731" stop-color="#D4AF37"/>
<stop offset="0.985577" stop-color="#300878"/>
</linearGradient>
<linearGradient id="paint5_linear_239_2975" x1="101.173" y1="150.002" x2="257" y2="150.002" gradientUnits="userSpaceOnUse">
<stop offset="0.370192" stop-color="#5A3FFF"/>
<stop offset="0.706731" stop-color="#D4AF37"/>
<stop offset="0.985577" stop-color="#300878"/>
</linearGradient>
<linearGradient id="paint6_linear_239_2975" x1="101.173" y1="150.002" x2="257" y2="150.002" gradientUnits="userSpaceOnUse">
<stop offset="0.370192" stop-color="#5A3FFF"/>
<stop offset="0.706731" stop-color="#D4AF37"/>
<stop offset="0.985577" stop-color="#300878"/>
</linearGradient>
<linearGradient id="paint7_linear_239_2975" x1="101.173" y1="150.002" x2="257" y2="150.002" gradientUnits="userSpaceOnUse">
<stop offset="0.370192" stop-color="#5A3FFF"/>
<stop offset="0.706731" stop-color="#D4AF37"/>
<stop offset="0.985577" stop-color="#300878"/>
</linearGradient>
<linearGradient id="paint8_linear_239_2975" x1="101.173" y1="150.002" x2="257" y2="150.002" gradientUnits="userSpaceOnUse">
<stop offset="0.370192" stop-color="#5A3FFF"/>
<stop offset="0.706731" stop-color="#D4AF37"/>
<stop offset="0.985577" stop-color="#300878"/>
</linearGradient>
<linearGradient id="paint9_linear_239_2975" x1="101.173" y1="150.002" x2="257" y2="150.002" gradientUnits="userSpaceOnUse">
<stop offset="0.370192" stop-color="#5A3FFF"/>
<stop offset="0.706731" stop-color="#D4AF37"/>
<stop offset="0.985577" stop-color="#300878"/>
</linearGradient>
<linearGradient id="paint10_linear_239_2975" x1="101.173" y1="150.002" x2="257" y2="150.002" gradientUnits="userSpaceOnUse">
<stop offset="0.370192" stop-color="#5A3FFF"/>
<stop offset="0.706731" stop-color="#D4AF37"/>
<stop offset="0.985577" stop-color="#300878"/>
</linearGradient>
<linearGradient id="paint11_linear_239_2975" x1="101.173" y1="150.002" x2="257" y2="150.002" gradientUnits="userSpaceOnUse">
<stop offset="0.370192" stop-color="#5A3FFF"/>
<stop offset="0.706731" stop-color="#D4AF37"/>
<stop offset="0.985577" stop-color="#300878"/>
</linearGradient>
<linearGradient id="paint12_linear_239_2975" x1="101.173" y1="150.002" x2="257" y2="150.002" gradientUnits="userSpaceOnUse">
<stop offset="0.370192" stop-color="#5A3FFF"/>
<stop offset="0.706731" stop-color="#D4AF37"/>
<stop offset="0.985577" stop-color="#300878"/>
</linearGradient>
<linearGradient id="paint13_linear_239_2975" x1="101.173" y1="150.002" x2="257" y2="150.002" gradientUnits="userSpaceOnUse">
<stop offset="0.370192" stop-color="#5A3FFF"/>
<stop offset="0.706731" stop-color="#D4AF37"/>
<stop offset="0.985577" stop-color="#300878"/>
</linearGradient>
<linearGradient id="paint14_linear_239_2975" x1="101.173" y1="150.002" x2="257" y2="150.002" gradientUnits="userSpaceOnUse">
<stop offset="0.370192" stop-color="#5A3FFF"/>
<stop offset="0.706731" stop-color="#D4AF37"/>
<stop offset="0.985577" stop-color="#300878"/>
</linearGradient>
<linearGradient id="paint15_linear_239_2975" x1="101.173" y1="150.002" x2="257" y2="150.002" gradientUnits="userSpaceOnUse">
<stop offset="0.370192" stop-color="#5A3FFF"/>
<stop offset="0.706731" stop-color="#D4AF37"/>
<stop offset="0.985577" stop-color="#300878"/>
</linearGradient>
<linearGradient id="paint16_linear_239_2975" x1="101.173" y1="150.002" x2="257" y2="150.002" gradientUnits="userSpaceOnUse">
<stop offset="0.370192" stop-color="#5A3FFF"/>
<stop offset="0.706731" stop-color="#D4AF37"/>
<stop offset="0.985577" stop-color="#300878"/>
</linearGradient>
<linearGradient id="paint17_linear_239_2975" x1="101.173" y1="150.002" x2="257" y2="150.002" gradientUnits="userSpaceOnUse">
<stop offset="0.370192" stop-color="#5A3FFF"/>
<stop offset="0.706731" stop-color="#D4AF37"/>
<stop offset="0.985577" stop-color="#300878"/>
</linearGradient>
<linearGradient id="paint18_linear_239_2975" x1="101.173" y1="150.002" x2="257" y2="150.002" gradientUnits="userSpaceOnUse">
<stop offset="0.370192" stop-color="#5A3FFF"/>
<stop offset="0.706731" stop-color="#D4AF37"/>
<stop offset="0.985577" stop-color="#300878"/>
</linearGradient>
<clipPath id="clip0_239_2975">
<rect width="200" height="36" fill="white" transform="translate(57 132)"/>
</clipPath>
</defs>
</svg>
